<?xml version="1.0" encoding="UTF-8"?><svg xmlns="http://www.w3.org/2000/svg" viewBox="0 0 140.08 139.1"><defs><style>.cls-1{fill:#fff;}</style></defs><g id="Cross"><path class="cls-1" d="M70.1,27.16c-23.52,0-42.66,19.02-42.66,42.4s19.14,42.4,42.66,42.4,42.66-19.02,42.66-42.4-19.14-42.4-42.66-42.4Zm0,82.51c-22.26,0-40.36-18-40.36-40.12S47.84,29.43,70.1,29.43s40.36,18,40.36,40.12-18.11,40.12-40.36,40.12Z"/></g><g id="Center"><path class="cls-1" d="M59.06,79.48l-11.3,11.23c-.5,.5-.5,1.31,0,1.81,.25,.25,.58,.38,.91,.38s.66-.13,.91-.38l13.2-13.12c-.91,0-2.28,0-3.73,.08Z"/><path class="cls-1" d="M94.29,46.28c-.5-.5-1.32-.5-1.82,0l-14.2,14.11c.6,.41,1.34,1,1.9,1.73l9.78-9.72c.55,1.26,1.22,3.38,.91,5.69,0,0,3.78-2.53,1.39-7.97l2.05-2.03c.5-.5,.5-1.31,0-1.81Z"/><path class="cls-1" d="M53.35,46.51l2.38,2.37-5.35,5.31-2.38-2.37-.81,.81,9.16,9.11,.62-.99h0s.73-.73,.73-.73l4.61-4.59,2.08,2.07-3.08,3.06,1.18,.43,2.71-2.69,.37,.36,.83-.78-12.25-12.18-.81,.81Zm8.16,8.11l-5.35,5.31-2.08-2.07,5.35-5.31,2.08,2.07Zm-2.89-2.87l-5.35,5.31-2.08-2.07,5.35-5.31,2.08,2.07Z"/><path class="cls-1" d="M94.12,87.04l.81-.81-5.03-5-1.07-.26-.02-.02-.5-.11-.55-.13,.18,.18-5.35,5.31-2.08-2.07,4.18-4.16-1.36-.26-3.64,3.61-.74-.74-.85,.77,9.86,9.8,.81-.81-2.49-2.47,5.35-5.31,2.49,2.47Zm-8.64,2.04l-2.08-2.07,5.35-5.31,2.08,2.07-5.35,5.31Z"/><path class="cls-1" d="M44.36,65.6s.19-3.26-.85-4.61h-.47s1.01,9.59-1.48,16.11c0,0,3.85,3.51,9.18,.31,0,0-2.87-1.93-2.74-11.39l-3.63-.43Z"/><path class="cls-1" d="M54.68,68.83s-.57,.38-1.99,.38-2.21-1-2.68-1-.95,1.25-.95,2.23,.63,2.16,1.2,2.1,1.39-1,2.62-1.03,.88,.22,1.51,.19,2.05-.41,2.05-.41v-2.16s-1.1-.28-1.77-.28Z"/><path class="cls-1" d="M83.04,68.01v.56l4.86,2.57s4.29-.88,7.13,2.7l1.83-2.92-.28-.75s-1.89-.38-4.01-1.98l-9.53-.19Z"/><path class="cls-1" d="M65.07,63.1l.45,.19s1.7-2.21,2.72-2.09,.78,.61,.78,.61c0,0,.02,.26-.71,.43-1.51,.79-4.33,5.45-4.47,8.38,0,0,2.13-1.86,6.03-1.86l.07-8.21s.05-.4,.64-.4,.76,.59,.76,.59v7.9s4.16,.54,6.25,2.07c0,0,.61-4.51-4.7-8.23,0,0-.47-.38-.14-.85s.96-.16,.96-.16c0,0,5.2,2.95,5.84,10.52l1.52,1.1s1.83-14.55-10.31-14.55c-5.77,0-7.07,3.27-7.07,3.27l1.47,.63-.07,.66Z"/><path class="cls-1" d="M58.05,60.96c.83-.51,1.96-.35,2.6,.87s3.03,1.5,3.03,1.5c0,0-1.49,5.38-1.47,8.04l-4.59,1.88s.62-5.62-.14-7.55-.54-4.07,.57-4.75Z"/><path class="cls-1" d="M55.89,72.79s.33,1.98,1.44,2.16,9.72-4.66,12.76-4.66,6.78,1.79,8.74,2.96,7.23,4.77,8.68,4.98c1.59,.24,2.08,.09,2.6-.61s.26-1.72-.57-2.45c-.58-.51-6.81-3.95-6.81-3.95l.05-1.46s6.96,3.39,8.19,4.89,.83,3.14,.5,3.62-.99,2-4.73,.94-9.89-4.54-29.71-.71c0,0-4.49,.47-3.6-3.84,.5-2.39,2.46-1.9,2.46-1.9Z"/><path class="cls-1" d="M82.66,72.19c-.36-.13-.29,1.73-.1,2.15s4.57,3.09,5.46,3.28,1.28-.21,1.39-.5c.17-.45,.1-.88-.38-1.3-.29-.26-5.92-3.46-6.36-3.62Z"/><path class="cls-1" d="M66.87,57.98s3.93-1.71,8,.3l-.71-13.28s-4.31-.94-7.29,0v12.98Z"/><path class="cls-1" d="M65.97,78.76s2.84-1.31,10.36-.65l1.14,12.18h-12.07l.57-11.53Z"/><rect class="cls-1" x="64.31" y="92.12" width="14.24" height="2.08" rx=".55" ry=".55"/><path class="cls-1" d="M82.99,99.97c0-2.31-1.89-4.19-4.21-4.19h-14.69c-2.33,0-4.21,1.87-4.21,4.19h0s23.11,0,23.11,0Z"/><rect class="cls-1" x="65.92" y="41.57" width="9.32" height="1.5" rx=".4" ry=".4"/><path class="cls-1" d="M65.92,38.73s-.43-1.84,1.37-1.78,.54,.87,2.93,.89,2.87-1.42,4.35-1.39,1.32,1.6,.66,2.57-1.51,1.47-2.93,1.13-2.18-.5-3.06-.03-3.22,.05-3.33-1.38Z"/></g><g id="Text"><path class="cls-1" d="M39.27,95.75c-6.22-7.26-9.65-16.52-9.65-26.08s3.43-18.81,9.65-26.08l.69-.8L23.5,26.42h0c-1.1-1.09-2.56-1.69-4.11-1.69s-3.01,.6-4.11,1.69c-1.51,1.5-2.07,3.7-1.46,5.73h0c.51,1.87,.76,3.93,.76,6.15,0,6.61-2.82,12.94-7.74,17.38h-.01c-3.32,2.59-5.62,6.25-6.46,10.33-.24,1.16-.36,2.35-.36,3.54,0,.08,0,.16,0,.24,0,1.19,.12,2.38,.36,3.53,.84,4.08,3.13,7.75,6.46,10.32h.01c4.92,4.45,7.75,10.78,7.75,17.39,0,2.21-.26,4.28-.76,6.14h0c-.61,2.04-.05,4.24,1.46,5.74,1.13,1.13,2.62,1.69,4.11,1.69s2.98-.56,4.11-1.69l16.46-16.37-.69-.8Zm-17.35-28.13c.83,0,1.54-.14,2.26-.46l-1.14,1.97c-.34,.6-.91,.86-1.71,.86h-7.39v4.23c0,1.51,.46,2.51,1.37,3h-6.08c.97-.54,1.34-1.46,1.34-3v-10.99c0-1.54-.4-2.48-1.34-3H25.28c-.11,.4-.2,.71-.2,.94,0,.43,.46,1.28,.83,2.71-1.63-.94-3.65-1.23-6.28-1.23h-5.71v4.97h7.99Z"/><g><path class="cls-1" d="M123.19,62.64h-3.4v12.13h3.71c5.08,0,7.42-1.71,7.42-6.17s-2.57-5.97-7.74-5.97Z"/><path class="cls-1" d="M140.07,69.31c0-1.19-.12-2.38-.36-3.53-.84-4.08-3.13-7.75-6.46-10.32h-.01c-4.92-4.45-7.75-10.78-7.75-17.39,0-2.21,.26-4.28,.76-6.14h0c.61-2.04,.05-4.24-1.46-5.74-1.1-1.09-2.56-1.69-4.11-1.69s-3.01,.6-4.11,1.69l-16.46,16.37,.69,.8c6.22,7.26,9.65,16.52,9.65,26.08s-3.43,18.81-9.65,26.08l-.69,.8,16.46,16.37c1.1,1.09,2.56,1.69,4.11,1.69s3.01-.6,4.11-1.69c1.51-1.5,2.07-3.7,1.46-5.73h0c-.51-1.87-.76-3.93-.76-6.15,0-6.61,2.82-12.94,7.74-17.38h.01c3.32-2.59,5.61-6.25,6.46-10.33,.24-1.16,.36-2.35,.36-3.54,0-.08,0-.16,0-.24Zm-15.94,7.9h-9.05c1.03-.57,1.34-1.51,1.34-3.05v-10.88c0-1.54-.31-2.48-1.34-3.05h8.94c3.11,0,5.48,.37,7.25,1.66,2.03,1.46,3.2,3.85,3.2,6.62,0,5.48-3.74,8.71-10.33,8.71Z"/></g><g><path class="cls-1" d="M91.68,18.83l-3.16-1.32-1.28,3.06,3.09,1.29c1.76,.73,2.73,.7,3.21-.46,.53-1.27-.17-1.87-1.87-2.58Z"/><path class="cls-1" d="M113.49,15.18c-1.5-1.49-3.69-2.05-5.76-1.46-1.88,.51-3.96,.76-6.19,.76-6.65,0-13.02-2.8-17.49-7.7h-.01c-2.59-3.32-6.28-5.6-10.38-6.43-1.24-.25-2.53-.37-3.81-.36-1.2,0-2.39,.12-3.55,.36-4.11,.83-7.79,3.11-10.38,6.42h-.01c-4.47,4.91-10.84,7.71-17.49,7.71-2.23,0-4.32-.26-6.18-.76-2.05-.6-4.26-.05-5.77,1.45-1.1,1.09-1.7,2.54-1.7,4.09s.6,2.99,1.7,4.09l16.47,16.36,.81-.68c7.31-6.19,16.62-9.59,26.24-9.59s18.93,3.41,26.24,9.59l.8,.68,16.47-16.36h0c2.27-2.25,2.27-5.92,0-8.17Zm-60.77,11.64l-5.2,2.06c.46-.56,.43-1.17,.08-2.06l-2.47-6.25c-.35-.89-.74-1.35-1.46-1.45l5.13-2.03c1.79-.71,3.23-1.03,4.54-.7,1.49,.38,2.71,1.49,3.34,3.08,1.25,3.15-.17,5.85-3.95,7.35Zm17.35-3.69l-10.89,1.25c.56-.4,.72-.99,.61-1.93l-.77-6.74c-.11-.95-.42-1.5-1.03-1.74l10.72-1.23c-.04,.25-.07,.45-.06,.59,.03,.26,.35,.76,.7,1.61-1.06-.46-2.33-.5-3.94-.31l-4.36,.5,.32,2.8,4.9-.56c.51-.06,.95-.2,1.37-.42l-.58,1.29c-.17,.37-.5,.59-.99,.65l-4.54,.52,.36,3.17,4.5-.52c1.84-.21,3.25-.78,4-1.49-.24,.99-.53,1.6-.48,1.97,.02,.14,.06,.33,.16,.6Zm.73-.04c.64-.25,.94-.78,1.07-1.72l.92-6.72c.13-.94-.04-1.55-.57-1.95l10.69,1.47c-.1,.23-.18,.42-.2,.56-.04,.26,.15,.82,.28,1.73-.92-.71-2.13-1.06-3.74-1.28l-4.35-.6-.38,2.79,4.89,.67c.51,.07,.97,.04,1.43-.07l-.88,1.11c-.26,.32-.63,.45-1.12,.38l-4.52-.62-.43,3.16,4.49,.62c1.83,.25,3.34,.05,4.24-.45-.48,.9-.91,1.42-.96,1.79-.02,.14-.03,.33,0,.62l-10.86-1.49Zm24.85-.95c-.58,1.38-1.95,1.96-3.85,1.54,.72,.74,.99,1.62,1.17,2.73,.21,1.18,.28,2.2,.79,3.04l-3.45-1.44c.24-.07,.33-.2,.43-.43,.2-.47,.21-1.29-.1-2.32-.39-1.31-.94-2.05-2.21-2.58l-1.76-.73-.89,2.13c-.37,.89-.4,1.5,.04,2.06l-3.45-1.44c.73-.1,1.12-.54,1.49-1.42l2.6-6.23c.37-.88,.36-1.51-.05-2.03l5.78,2.41c1.45,.6,2.48,1.1,3.03,1.72,.74,.84,.89,1.9,.43,2.99Z"/><path class="cls-1" d="M48.87,18.67l-1.95,.77,2.76,6.97,2.13-.84c2.92-1.16,3.87-2.67,2.86-5.23-1.04-2.62-2.83-2.84-5.8-1.67Z"/></g><path class="cls-1" d="M113.61,115.75l-16.47-16.36-.81,.68c-7.31,6.19-16.62,9.59-26.24,9.59s-18.93-3.41-26.24-9.59l-.81-.68-16.47,16.36h0c-1.1,1.09-1.7,2.54-1.7,4.09s.6,2.99,1.7,4.09c1.51,1.5,3.72,2.06,5.77,1.45h0c1.87-.51,3.95-.76,6.18-.76,6.65,0,13.01,2.8,17.49,7.7v.02c2.6,3.3,6.29,5.58,10.4,6.42,1.16,.24,2.36,.36,3.56,.36,.08,0,.16,0,.24,0,1.2,0,2.39-.12,3.55-.36,4.11-.84,7.79-3.11,10.38-6.42v-.02c4.48-4.89,10.85-7.7,17.5-7.7,2.22,0,4.3,.25,6.17,.76h0c2.05,.61,4.26,.05,5.77-1.45,2.27-2.25,2.27-5.92,0-8.17Zm-60.15,5.09c-.29,.85-.3,1.43,.16,1.94l-3.36-1.15c.66-.13,1.03-.58,1.32-1.43l2.06-6c.3-.87,.29-1.45-.16-1.94l3.36,1.15c-.65,.11-1.02,.56-1.32,1.43l-2.06,6Zm7.33-2.67c1.24,.44,2.37,.75,3.24,1.37,1.01,.72,1.41,1.66,1.23,2.69-.34,1.89-2.27,2.84-5.37,2.29-1.46-.26-2.54-.73-3.3-.86-.16-.03-.32,0-.5,.05l-.14-2.46c1.39,.96,2.85,1.58,4.34,1.84,1.71,.3,2.71-.19,2.85-.98,.18-1.03-.8-1.58-2.67-2.2-2.54-.86-3.69-2-3.42-3.52,.27-1.49,2.01-2.55,4.98-2.02,1.48,.26,2.64,.76,3.58,.93,.11,.02,.25,.01,.41-.01l-.89,1.97c-.97-.73-2.14-1.21-3.55-1.46-1.49-.27-2.35,.09-2.47,.76-.1,.56,.45,1.18,1.67,1.62Zm15.67,6.87l-9.14,.29c.56-.33,.76-.87,.73-1.77l-.21-6.41c-.03-.9-.28-1.44-.84-1.72l3.55-.11c-.56,.32-.77,.89-.74,1.77l.22,6.76,3.06-.1c1.7-.05,2.97-.41,3.87-1.11-.29,.91-.6,1.47-.59,1.82,0,.12,.03,.32,.1,.58Zm2.56-.27c.47-.45,.54-1.02,.32-1.89l-1.62-6.21c-.23-.87-.59-1.34-1.2-1.5l9.87-2.57c0,.24,0,.43,.03,.56,.06,.24,.43,.66,.87,1.41-1.06-.29-2.24-.16-3.73,.23l-4.02,1.05,.67,2.58,4.52-1.18c.47-.12,.87-.31,1.23-.58l-.37,1.28c-.11,.37-.39,.62-.84,.74l-4.18,1.09,.76,2.92,4.14-1.08c1.69-.44,2.93-1.16,3.55-1.92-.1,.95-.28,1.57-.19,1.91,.03,.13,.1,.3,.23,.54l-10.03,2.61Z"/></g></svg>