<?xml version="1.0" encoding="utf-8"?>
<!-- Generator: Adobe Illustrator 27.0.1, SVG Export Plug-In . SVG Version: 6.00 Build 0)  -->
<svg version="1.1" id="Layer_1" xmlns="http://www.w3.org/2000/svg" xmlns:xlink="http://www.w3.org/1999/xlink" x="0px" y="0px"
	 viewBox="0 0 792 612" style="enable-background:new 0 0 792 612;" xml:space="preserve">
<style type="text/css">
	.st0{fill:#ffffff;}
</style>
<g>
	<path class="st0" d="M399.05,457.48c-82.4,0-149.43-66.62-149.43-148.52s67.04-148.52,149.43-148.52
		c82.4,0,149.43,66.62,149.43,148.52S481.45,457.48,399.05,457.48z M399.05,168.43c-77.97,0-141.4,63.04-141.4,140.54
		s63.43,140.54,141.4,140.54c77.97,0,141.4-63.04,141.4-140.54S477.02,168.43,399.05,168.43z"/>
	<path class="st0" d="M303.9,204.42l-57.69-57.29c-3.85-3.82-5.97-8.91-5.97-14.32c0-5.41,2.12-10.49,5.97-14.31
		c5.29-5.25,13.03-7.21,20.2-5.1c6.53,1.76,13.83,2.66,21.66,2.66c23.29,0,45.6-9.82,61.26-26.96l0.04-0.05
		c9.08-11.57,22-19.55,36.38-22.47c4.07-0.83,8.26-1.25,12.45-1.25c4.48-0.06,8.98,0.36,13.33,1.24
		c14.38,2.92,27.3,10.91,36.38,22.47l0.04,0.05c15.66,17.14,37.97,26.96,61.26,26.96c7.82,0,15.12-0.9,21.7-2.67
		c7.22-2.08,14.9-0.12,20.16,5.1c7.94,7.89,7.94,20.74,0,28.63l0,0l-57.7,57.3l-2.82-2.39c-25.6-21.67-58.24-33.6-91.91-33.6
		c-33.67,0-66.32,11.93-91.91,33.61L303.9,204.42z M260.61,120.55c-3.22,0-6.38,1.26-8.73,3.6c-2.33,2.32-3.61,5.4-3.61,8.67
		s1.28,6.36,3.61,8.67l52.48,52.12c26.6-21.41,59.93-33.16,94.27-33.16c34.34,0,67.67,11.75,94.26,33.15l52.49-52.12
		c4.81-4.78,4.81-12.56,0-17.34c-3.2-3.18-7.89-4.36-12.24-3.09l-0.12,0.04c-7.27,1.96-15.28,2.95-23.82,2.95
		c-25.68,0-50.26-10.88-67.46-29.86l-2.79-3.08l0.12-0.1c-7.69-8.47-17.91-14.32-29.16-16.61c-3.55-0.72-7.2-1.09-10.86-1.09
		c-0.01,0-0.02,0-0.03,0v0.01l-0.81-0.01c-3.66,0-7.31,0.37-10.86,1.09c-11.18,2.27-21.36,8.07-29.03,16.47l0.12,0.09l-2.91,3.23
		c-17.19,18.98-41.78,29.86-67.46,29.86c-8.54,0-16.55-0.99-23.82-2.95l-0.15-0.04C262.95,120.71,261.78,120.55,260.61,120.55z"/>
	<path class="st0" d="M576.29,465.98c-5.44,0-10.56-2.11-14.4-5.93l-57.65-57.34l2.4-2.8c21.8-25.44,33.81-57.88,33.81-91.35
		c0-33.47-12.01-65.91-33.81-91.35l-2.4-2.8l57.65-57.34c3.85-3.83,8.96-5.93,14.4-5.93s10.56,2.11,14.4,5.93
		c5.29,5.25,7.25,12.94,5.13,20.07l-0.01,0.03c-1.77,6.52-2.67,13.75-2.67,21.5c0,23.15,9.89,45.32,27.13,60.89l0.05,0.04
		c11.64,9.02,19.67,21.86,22.61,36.16c0.83,4.04,1.26,8.21,1.26,12.37c0,0.28,0.01,0.57,0.01,0.85c0,4.17-0.42,8.34-1.26,12.4
		c-2.94,14.29-10.97,27.13-22.61,36.16l-0.05,0.04c-17.25,15.57-27.13,37.73-27.13,60.88c0,7.75,0.9,14.99,2.67,21.51l0.01,0.02
		c2.12,7.13,0.16,14.82-5.13,20.07C586.84,463.87,581.73,465.98,576.29,465.98z M567.56,454.4c2.33,2.32,5.43,3.59,8.72,3.59
		c3.3,0,6.39-1.28,8.72-3.59c3.19-3.17,4.38-7.8,3.12-12.11l-0.05-0.18c-1.97-7.22-2.97-15.19-2.97-23.68
		c0-25.52,10.95-49.96,30.04-67.04l3.1-2.77l0.1,0.12c8.53-7.64,14.41-17.8,16.71-28.98c0.73-3.53,1.09-7.16,1.09-10.8
		c0-0.01,0-0.02,0-0.02h-0.01l0-0.81c0-3.64-0.37-7.27-1.09-10.79c-2.28-11.08-8.08-21.16-16.49-28.78l-0.09,0.12l-3.34-2.97
		c-19.09-17.09-30.04-41.52-30.04-67.04c0-8.49,1-16.45,2.97-23.68l0.06-0.2c1.26-4.24,0.07-8.9-3.13-12.09
		c-2.33-2.32-5.43-3.59-8.72-3.59c-3.3,0-6.39,1.28-8.73,3.59l-52.44,52.16c21.54,26.44,33.36,59.56,33.36,93.69
		c0,34.13-11.82,67.25-33.36,93.69L567.56,454.4z"/>
	<path class="st0" d="M398.63,552.61c-4.2,0-8.4-0.42-12.47-1.25c-14.38-2.93-27.3-10.91-36.38-22.47l-0.04-0.05
		c-15.66-17.14-37.97-26.96-61.25-26.96c-7.8,0-15.08,0.89-21.64,2.65l-0.02,0.01c-7.17,2.11-14.91,0.16-20.2-5.1
		c-3.85-3.82-5.97-8.91-5.97-14.31c0-5.41,2.12-10.49,5.97-14.31l0,0l57.7-57.3l2.82,2.39c25.6,21.67,58.24,33.6,91.91,33.6
		c33.67,0,66.32-11.93,91.91-33.61l2.82-2.39l57.69,57.3c7.94,7.89,7.94,20.74,0,28.63c-5.29,5.25-13.02,7.21-20.2,5.1l-0.03-0.01
		c-6.56-1.76-13.83-2.65-21.63-2.65c-23.29,0-45.59,9.82-61.25,26.96l-0.04,0.06c-9.08,11.57-22,19.55-36.38,22.47
		c-4.07,0.83-8.26,1.25-12.45,1.25C399.21,552.61,398.92,552.61,398.63,552.61z M358.66,527c7.69,8.44,17.88,14.26,29.1,16.55
		c3.55,0.72,7.21,1.09,10.87,1.09c0.01,0,0.02,0,0.03,0v-0.01l0.81,0.01c3.66,0,7.31-0.37,10.85-1.09
		c11.19-2.28,21.37-8.08,29.05-16.49l-0.12-0.09l2.89-3.21c17.19-18.98,41.78-29.86,67.46-29.86c8.54,0,16.56,0.99,23.82,2.95
		l0.18,0.05c4.33,1.25,8.99,0.06,12.18-3.1c4.81-4.78,4.81-12.56,0-17.34l-52.48-52.12c-26.6,21.41-59.93,33.16-94.27,33.16
		c-34.34,0-67.67-11.75-94.26-33.15l-52.49,52.13c-2.33,2.32-3.61,5.39-3.61,8.67c0,3.28,1.28,6.36,3.61,8.67
		c3.19,3.17,7.85,4.35,12.18,3.1l0.18-0.05c7.27-1.96,15.28-2.95,23.82-2.95c25.68,0,50.26,10.88,67.46,29.86l2.85,3.14L358.66,527z
		"/>
	<path class="st0" d="M221.4,466.79c-5.22,0-10.43-1.97-14.4-5.92c-5.29-5.25-7.25-12.95-5.13-20.08l0.01-0.02
		c1.77-6.52,2.67-13.76,2.67-21.51c0-23.15-9.89-45.32-27.13-60.89l-0.05-0.03c-11.64-9.02-19.67-21.86-22.61-36.16
		c-0.83-4.05-1.26-8.21-1.26-12.37c0-0.28-0.01-0.57-0.01-0.85c0-4.17,0.42-8.34,1.26-12.4c2.94-14.29,10.97-27.13,22.61-36.16
		l0.05-0.04c17.25-15.57,27.13-37.73,27.13-60.88c0-7.75-0.9-14.99-2.67-21.51l-0.01-0.02c-2.12-7.13-0.16-14.82,5.13-20.07
		c3.85-3.82,8.96-5.93,14.4-5.93c5.44,0,10.56,2.11,14.4,5.93l0,0l57.65,57.34l-2.4,2.8c-21.8,25.44-33.81,57.88-33.81,91.35
		c0,33.47,12.01,65.91,33.81,91.35l2.4,2.8l-57.65,57.34C231.83,464.82,226.62,466.79,221.4,466.79z M179.34,349.39l3.19,2.83
		c19.09,17.09,30.04,41.52,30.04,67.04c0,8.49-1,16.45-2.97,23.68l-0.05,0.18c-1.27,4.26-0.08,8.92,3.12,12.1
		c4.81,4.78,12.64,4.78,17.45,0l52.44-52.16c-21.54-26.44-33.36-59.56-33.36-93.69c0-34.13,11.82-67.25,33.36-93.69l-52.45-52.16
		c-2.33-2.32-5.43-3.59-8.72-3.59c-3.3,0-6.39,1.28-8.73,3.59c-3.19,3.17-4.38,7.81-3.12,12.11l0.05,0.17
		c1.97,7.22,2.97,15.19,2.97,23.68c0,25.52-10.95,49.96-30.04,67.04l-3.24,2.9l-0.1-0.13c-8.45,7.63-14.28,17.74-16.57,28.86
		c-0.73,3.53-1.1,7.16-1.1,10.8c0,0.01,0,0.02,0,0.03h0.01l-0.01,0.81c0,3.63,0.37,7.26,1.09,10.79
		c2.29,11.14,8.15,21.28,16.63,28.91L179.34,349.39z"/>
	<path class="st0" d="M360.39,343.75l-39.57,39.33c-1.76,1.75-1.76,4.6,0,6.35c0.88,0.88,2.04,1.32,3.19,1.32
		c1.16,0,2.31-0.44,3.19-1.32l46.24-45.96C370.26,343.45,365.44,343.48,360.39,343.75z"/>
	<path class="st0" d="M483.81,227.44c-1.76-1.75-4.62-1.75-6.39,0l-49.74,49.44c2.11,1.43,4.7,3.51,6.66,6.08l34.25-34.04
		c1.92,4.41,4.29,11.84,3.18,19.92c0,0,13.23-8.87,4.86-27.92l7.17-7.13C485.57,232.04,485.57,229.2,483.81,227.44z"/>
	<path class="st0" d="M340.37,228.26l8.35,8.3l-18.73,18.61l-8.35-8.3l-2.84,2.82l32.09,31.9l2.18-3.47l0,0l2.57-2.55l16.16-16.06
		l7.29,7.24l-10.78,10.72l4.15,1.52l9.48-9.42l1.29,1.28l2.92-2.74l-42.93-42.67L340.37,228.26z M368.97,256.69l-18.73,18.61
		l-7.29-7.24l18.73-18.61L368.97,256.69z M358.85,246.62l-18.73,18.61l-7.29-7.24l18.73-18.61L358.85,246.62z"/>
	<path class="st0" d="M483.22,370.23l2.84-2.82l-17.63-17.52l-3.75-0.91l-0.07-0.07l-1.77-0.38l-1.91-0.46l0.62,0.62l-18.73,18.61
		l-7.29-7.24l14.65-14.56l-4.76-0.91l-12.74,12.66l-2.6-2.58l-2.97,2.69l34.53,34.32l2.84-2.82l-8.71-8.65l18.73-18.61
		L483.22,370.23z M452.95,377.37l-7.29-7.24l18.73-18.61l7.29,7.24L452.95,377.37z"/>
	<path class="st0" d="M308.9,295.11c0,0,0.66-11.42-2.98-16.14h-1.66c0,0,3.54,33.61-5.19,56.45c0,0,13.48,12.3,32.16,1.1
		c0,0-10.06-6.76-9.61-39.89L308.9,295.11z"/>
	<path class="st0" d="M345.03,306.42c0,0-1.99,1.32-6.96,1.32c-4.97,0-7.73-3.51-9.39-3.51s-3.32,4.39-3.32,7.8s2.21,7.58,4.2,7.36
		c1.99-0.22,4.86-3.51,9.17-3.62c4.31-0.11,3.09,0.77,5.3,0.66c2.21-0.11,7.18-1.43,7.18-1.43v-7.58
		C351.22,307.41,347.35,306.42,345.03,306.42z"/>
	<path class="st0" d="M444.37,303.57v1.98l17.02,9.01c0,0,15.03-3.08,24.97,9.44l6.41-10.21l-0.99-2.64c0,0-6.63-1.32-14.03-6.92
		L444.37,303.57z"/>
	<path class="st0" d="M381.44,286.38l1.57,0.66c0,0,5.97-7.74,9.53-7.33s2.73,2.14,2.73,2.14s0.08,0.91-2.49,1.52
		c-5.3,2.77-15.17,19.08-15.66,29.37c0,0,7.46-6.51,21.13-6.51l0.25-28.75c0,0,0.17-1.4,2.24-1.4s2.65,2.06,2.65,2.06v27.68
		c0,0,14.59,1.89,21.88,7.25c0,0,2.13-15.81-16.46-28.83c0,0-1.64-1.32-0.5-2.97c1.13-1.65,3.37-0.58,3.37-0.58
		s18.23,10.32,20.46,36.84l5.31,3.85c0,0,6.39-50.99-36.13-50.99c-20.22,0-24.78,11.45-24.78,11.45l5.14,2.22L381.44,286.38z"/>
	<path class="st0" d="M356.83,278.88c2.92-1.79,6.88-1.24,9.12,3.05s10.61,5.27,10.61,5.27s-5.22,18.86-5.14,28.17l-16.08,6.59
		c0,0,2.15-19.69-0.5-26.44C352.19,288.77,352.93,281.27,356.83,278.88z"/>
	<path class="st0" d="M349.29,320.32c0,0,1.16,6.92,5.06,7.58s34.05-16.31,44.71-16.31c10.65,0,23.75,6.26,30.63,10.38
		s25.32,16.71,30.42,17.46c5.55,0.82,7.29,0.33,9.12-2.14c1.82-2.47,0.91-6.04-1.99-8.57c-2.04-1.78-23.87-13.84-23.87-13.84
		l0.17-5.11c0,0,24.37,11.86,28.67,17.13c4.31,5.27,2.9,11.01,1.74,12.67c-1.16,1.66-3.48,7.01-16.57,3.31
		c-13.09-3.71-34.64-15.92-104.08-2.47c0,0-15.74,1.65-12.6-13.44C342.41,318.59,349.29,320.32,349.29,320.32z"/>
	<path class="st0" d="M443.07,318.22c-1.28-0.45-1.02,6.05-0.36,7.53c0.66,1.48,16.02,10.82,19.12,11.48s4.48-0.74,4.85-1.76
		c0.59-1.59,0.34-3.08-1.32-4.56C464.34,329.99,444.65,318.78,443.07,318.22z"/>
	<path class="st0" d="M387.74,268.42c0,0,13.76-5.98,28.01,1.04l-2.49-46.51c0,0-15.08-3.29-25.53,0V268.42z"/>
	<path class="st0" d="M384.59,341.22c0,0,9.94-4.6,36.3-2.29l3.98,42.67H382.6L384.59,341.22z"/>
	<path class="st0" d="M379.34,388.02h48.79c0.3,0,0.55,0.25,0.55,0.55v6.19c0,0.3-0.25,0.55-0.55,0.55h-48.79
		c-0.3,0-0.55-0.25-0.55-0.55v-6.19C378.79,388.27,379.04,388.02,379.34,388.02z"/>
	<path class="st0" d="M444.21,415.53c0-8.1-6.6-14.66-14.75-14.66h-51.45c-8.15,0-14.75,6.56-14.75,14.66v0L444.21,415.53z"/>
	<path class="st0" d="M384.81,210.95h31.86c0.22,0,0.4,0.18,0.4,0.4v4.48c0,0.22-0.18,0.4-0.4,0.4h-31.86c-0.22,0-0.4-0.18-0.4-0.4
		v-4.48C384.42,211.13,384.59,210.95,384.81,210.95z"/>
	<path class="st0" d="M384.42,200.99c0,0-1.49-6.46,4.81-6.24c6.3,0.22,1.88,3.05,10.28,3.12c8.4,0.07,10.06-4.99,15.25-4.88
		c5.19,0.11,4.64,5.6,2.32,9.01s-5.3,5.16-10.28,3.95c-4.97-1.21-7.62-1.76-10.72-0.11C392.98,207.49,384.8,206.03,384.42,200.99z"
		/>
	<path class="st0" d="M230.26,302.17c2.9,0,5.4-0.5,7.9-1.6l-4,6.9c-1.2,2.1-3.2,3-6,3h-25.9v14.8c0,5.3,1.6,8.8,4.8,10.5h-21.3
		c3.4-1.9,4.7-5.1,4.7-10.5v-38.5c0-5.4-1.4-8.7-4.7-10.5h56.3c-0.4,1.4-0.7,2.5-0.7,3.3c0,1.5,1.6,4.5,2.9,9.5
		c-5.7-3.3-12.8-4.3-22-4.3h-20v17.4H230.26z"/>
	<path class="st0" d="M613.35,282.07c7.1,5.1,11.2,13.5,11.2,23.2c0,19.2-13.1,30.5-36.2,30.5h-31.7c3.6-2,4.7-5.3,4.7-10.7v-38.1
		c0-5.4-1.1-8.7-4.7-10.7h31.3C598.85,276.27,607.15,277.57,613.35,282.07z M586.15,327.27c17.8,0,26-6,26-21.6
		c0-16-9-20.9-27.1-20.9h-11.9v42.5H586.15z"/>
	<path class="st0" d="M340.31,122.74c5.24,1.31,9.5,5.21,11.71,10.77c4.37,11.02-0.59,20.49-13.85,25.74l-18.2,7.21
		c1.61-1.97,1.49-4.11,0.27-7.21l-8.66-21.88c-1.23-3.1-2.61-4.75-5.13-5.08l17.97-7.12C330.67,122.7,335.73,121.56,340.31,122.74z
		 M334.97,154.87c10.22-4.05,13.56-9.36,10.02-18.31c-3.64-9.19-9.92-9.95-20.31-5.84l-6.83,2.71l9.66,24.4L334.97,154.87z"/>
	<path class="st0" d="M362.93,143.91l-2.71-23.62c-0.38-3.31-1.47-5.24-3.62-6.11l37.55-4.31c-0.15,0.89-0.25,1.58-0.2,2.07
		c0.11,0.92,1.24,2.66,2.45,5.62c-3.73-1.62-8.16-1.74-13.8-1.09l-15.28,1.75l1.13,9.82l17.18-1.97c1.78-0.2,3.34-0.69,4.8-1.48
		l-2.03,4.52c-0.6,1.31-1.75,2.07-3.47,2.26l-15.89,1.82l1.27,11.1l15.77-1.81c6.44-0.74,11.37-2.73,14.01-5.21
		c-0.85,3.45-1.84,5.62-1.69,6.91c0.06,0.49,0.2,1.16,0.55,2.11l-38.16,4.38C362.73,149.28,363.31,147.23,362.93,143.91z"/>
	<path class="st0" d="M405.27,140.15l3.23-23.56c0.45-3.3-0.13-5.44-2-6.82l37.45,5.14c-0.36,0.82-0.64,1.47-0.71,1.96
		c-0.13,0.92,0.54,2.88,0.98,6.06c-3.21-2.5-7.47-3.71-13.1-4.48l-15.24-2.09l-1.34,9.79l17.13,2.35c1.77,0.24,3.41,0.16,5.02-0.25
		l-3.09,3.88c-0.9,1.12-2.21,1.57-3.92,1.33l-15.85-2.17l-1.52,11.08l15.72,2.16c6.42,0.88,11.7,0.17,14.87-1.58
		c-1.68,3.14-3.18,4.99-3.35,6.27c-0.07,0.49-0.1,1.17,0.01,2.18l-38.06-5.22C403.75,145.3,404.82,143.45,405.27,140.15z"/>
	<path class="st0" d="M454.13,156.83l-12.08-5.05c2.55-0.34,3.94-1.9,5.23-4.98l9.12-21.83c1.29-3.08,1.27-5.29-0.18-7.1l20.23,8.45
		c5.07,2.12,8.71,3.84,10.6,6.03c2.58,2.95,3.11,6.65,1.52,10.47c-2.02,4.84-6.81,6.86-13.5,5.4c2.53,2.6,3.46,5.66,4.11,9.55
		c0.75,4.13,1,7.71,2.78,10.66l-12.08-5.05c0.84-0.25,1.17-0.72,1.5-1.51c0.69-1.65,0.75-4.51-0.36-8.11
		c-1.36-4.59-3.29-7.2-7.73-9.05l-6.16-2.57l-3.12,7.47C452.69,152.75,452.61,154.86,454.13,156.83z M469.95,141.89
		c6.16,2.57,9.55,2.45,11.24-1.6c1.86-4.45-0.61-6.55-6.54-9.02l-11.06-4.62l-4.48,10.71L469.95,141.89z"/>
	<path class="st0" d="M348.01,467.61l-7.23,21.03c-1.02,2.98-1.04,5.01,0.56,6.8l-11.76-4.04c2.31-0.44,3.6-2.03,4.63-5.02
		l7.23-21.03c1.04-3.04,1.01-5.09-0.56-6.8l11.76,4.04C350.34,462.98,349.05,464.57,348.01,467.61z"/>
	<path class="st0" d="M364.73,496.54c5.98,1.07,9.49-0.68,9.98-3.43c0.65-3.62-2.8-5.54-9.35-7.72
		c-8.89-3.01-12.92-6.99-11.97-12.34c0.93-5.23,7.05-8.94,17.45-7.08c5.17,0.92,9.25,2.66,12.52,3.25c0.4,0.07,0.88,0.04,1.43-0.04
		l-3.13,6.91c-3.4-2.56-7.48-4.24-12.43-5.13c-5.23-0.93-8.24,0.31-8.66,2.66c-0.35,1.95,1.57,4.14,5.86,5.67
		c4.35,1.55,8.31,2.61,11.35,4.82c3.52,2.53,4.95,5.81,4.3,9.43c-1.18,6.61-7.95,9.96-18.81,8.02c-5.11-0.91-8.92-2.54-11.56-3.01
		c-0.57-0.1-1.12-0.02-1.75,0.16l-0.48-8.62C354.38,493.45,359.51,495.61,364.73,496.54z"/>
	<path class="st0" d="M388.21,469.69l12.43-0.4c-1.95,1.11-2.7,3.12-2.6,6.22l0.76,23.69l10.74-0.34
		c5.95-0.19,10.41-1.45,13.54-3.88c-1.01,3.19-2.11,5.15-2.07,6.38c0.01,0.41,0.09,1.11,0.36,2.03l-32.03,1.03
		c1.95-1.17,2.65-3.06,2.54-6.21l-0.72-22.46C391.05,472.58,390.17,470.68,388.21,469.69z"/>
	<path class="st0" d="M431.45,495.79l-5.67-21.75c-0.79-3.05-2.07-4.71-4.2-5.24l34.57-9.01c-0.02,0.85-0.03,1.52,0.09,1.97
		c0.22,0.85,1.51,2.32,3.04,4.94c-3.71-1.02-7.86-0.54-13.06,0.81l-14.07,3.67l2.36,9.04l15.82-4.12c1.64-0.43,3.03-1.09,4.3-2.03
		l-1.3,4.5c-0.38,1.31-1.37,2.17-2.95,2.58l-14.63,3.81l2.67,10.22l14.52-3.78c5.93-1.55,10.28-4.07,12.42-6.74
		c-0.33,3.34-0.98,5.5-0.67,6.69c0.12,0.45,0.34,1.06,0.8,1.9l-35.14,9.16C431.99,500.84,432.25,498.84,431.45,495.79z"/>
</g>
</svg>
